<?xml version="1.0" encoding="UTF-8" standalone="no"?>
<!DOCTYPE svg PUBLIC "-//W3C//DTD SVG 1.1//EN" "http://www.w3.org/Graphics/SVG/1.1/DTD/svg11.dtd">
<svg width="100%" height="100%" viewBox="0 0 136 96" version="1.1" xmlns="http://www.w3.org/2000/svg" xmlns:xlink="http://www.w3.org/1999/xlink" xml:space="preserve" xmlns:serif="http://www.serif.com/" style="fill-rule:evenodd;clip-rule:evenodd;stroke-linejoin:round;stroke-miterlimit:1.41421;">
    <g id="Ebene_1">
        <g transform="matrix(0.650069,0,0,0.650069,-205.308,-145.591)">
            <rect x="410.9" y="225.5" width="19.2" height="68.5" style="fill-rule:nonzero;"/>
        </g>
        <g transform="matrix(0.650069,0,0,0.650069,-205.308,-145.591)">
            <path d="M362.2,355.4L416.4,355.4L416.4,370.1L355.6,370.1C351.4,370.1 348.3,368.9 346.1,366.5C344,364 342.9,360.9 342.9,357L342.9,316C342.9,311.7 344.7,308.2 348.2,305.4C351.5,302.8 355.8,301.5 361.1,301.5L416.3,301.5L416.3,317L362.1,317L362.1,355.4L362.2,355.4Z" style="fill-rule:nonzero;"/>
        </g>
        <g transform="matrix(0.650069,0,0,0.650069,-205.308,-145.591)">
            <path d="M479.4,301.6C484.3,301.6 488.4,302.7 492.1,305C495.7,307.5 497.5,310.9 497.5,315.3L497.5,317.1L443.4,317.1L443.4,325L483.6,325C488.2,325.3 491.7,326.6 494.1,329C496.4,331.4 497.6,334.6 497.6,338.7L497.6,356.4C497.6,360.8 495.8,364.2 492.2,366.7C488.6,369 484.3,370.1 479.5,370.1L424.2,370.1L424.2,355.4L478.3,355.4L478.3,339.8L439,339.8C433.9,339.7 430.2,338.6 427.7,336.5C425.3,334.4 424.1,330.9 424.1,326.1L424.1,316.1C424.1,311.8 424.1,301.6 424.1,301.6L479.4,301.6" style="fill-rule:nonzero;"/>
        </g>
        <g transform="matrix(0.650069,0,0,0.650069,-205.308,-145.591)">
            <path d="M362.2,293.9L362.2,287.1C362.2,283.7 365,280.9 368.4,280.9L397,280.9C400.4,280.9 403.2,283.7 403.2,287.1L403.2,293.9L362.2,293.9Z" style="fill:rgb(221,28,21);fill-rule:nonzero;"/>
        </g>
    </g>
</svg>
